<svg xmlns="http://www.w3.org/2000/svg" viewBox="0 0 480 400" fill="none" aria-hidden="true">
  <defs>
    <linearGradient id="glow" x1="240" y1="0" x2="240" y2="400" gradientUnits="userSpaceOnUse">
      <stop stop-color="#0052FF" stop-opacity="0.35"/>
      <stop offset="1" stop-color="#0052FF" stop-opacity="0"/>
    </linearGradient>
  </defs>
  <ellipse cx="240" cy="220" rx="160" ry="140" fill="url(#glow)"/>
  <rect x="118" y="168" width="244" height="156" rx="16" stroke="#3B82F6" stroke-width="3"/>
  <rect x="134" y="184" width="212" height="108" rx="8" fill="#0052FF" fill-opacity="0.12" stroke="#3B82F6" stroke-width="2"/>
  <path d="M214 238 L234 252 L266 218" stroke="#60A5FA" stroke-width="4" stroke-linecap="round" stroke-linejoin="round"/>
  <circle cx="266" cy="218" r="18" fill="#0052FF" fill-opacity="0.25" stroke="#3B82F6" stroke-width="2"/>
  <path d="M260 218 L264 222 L274 212" stroke="#FFFFFF" stroke-width="2.5" stroke-linecap="round" stroke-linejoin="round"/>
  <rect x="198" y="324" width="84" height="8" rx="4" fill="#1D4ED8" fill-opacity="0.5"/>
  <path d="M300 118 L332 102 L364 118 L364 150 L332 166 L300 150 Z" stroke="#3B82F6" stroke-width="3"/>
  <path d="M322 118 V88" stroke="#3B82F6" stroke-width="3" stroke-linecap="round"/>
  <circle cx="322" cy="82" r="8" fill="#0052FF" fill-opacity="0.3" stroke="#3B82F6" stroke-width="2"/>
  <rect x="88" y="248" width="52" height="64" rx="6" stroke="#3B82F6" stroke-width="2.5"/>
  <rect x="96" y="256" width="36" height="10" rx="2" fill="#0052FF" fill-opacity="0.2"/>
  <rect x="96" y="272" width="36" height="10" rx="2" fill="#0052FF" fill-opacity="0.15"/>
  <rect x="96" y="288" width="36" height="10" rx="2" fill="#0052FF" fill-opacity="0.1"/>
  <rect x="340" y="236" width="52" height="64" rx="6" stroke="#3B82F6" stroke-width="2.5"/>
  <rect x="348" y="244" width="36" height="10" rx="2" fill="#0052FF" fill-opacity="0.2"/>
  <rect x="348" y="260" width="36" height="10" rx="2" fill="#0052FF" fill-opacity="0.15"/>
  <rect x="348" y="276" width="36" height="10" rx="2" fill="#0052FF" fill-opacity="0.1"/>
</svg>
