<svg xmlns="http://www.w3.org/2000/svg" viewBox="0 0 512 512" role="img" aria-label="SomEducation">
  <rect width="512" height="512" rx="102" fill="#0052FF"/>
  <path fill="#ffffff" d="M360.96 138.24c0-33.28-30.72-56.32-87.04-56.32-53.76 0-92.16 23.04-92.16 65.28 0 30.72 23.04 52.48 69.12 61.44l49.28 10.24c54.4 11.52 80.64 35.84 80.64 74.24 0 48.64-44.16 83.2-116.48 83.2-62.08 0-106.24-28.16-111.36-74.24h49.28c3.84 28.16 33.92 46.08 70.4 46.08 44.16 0 72.96-20.48 72.96-51.2 0-28.16-20.48-43.52-61.44-51.2l-49.28-10.24c-56.96-12.8-85.76-38.4-85.76-79.36 0-51.2 46.08-84.48 121.6-84.48 67.2 0 113.92 30.72 119.04 79.36h-49.28c-5.12-25.6-28.16-40.96-64-40.96z"/>
</svg>
