<svg xmlns="http://www.w3.org/2000/svg" viewBox="0 0 40 40" role="img" aria-label="SomEducation">
  <defs>
    <linearGradient id="g" x1="0%" y1="0%" x2="100%" y2="100%">
      <stop offset="0%" stop-color="#1d4ed8"/>
      <stop offset="55%" stop-color="#2563eb"/>
      <stop offset="100%" stop-color="#0891b2"/>
    </linearGradient>
    <linearGradient id="a" x1="0%" y1="100%" x2="100%" y2="0%">
      <stop offset="0%" stop-color="#f59e0b"/>
      <stop offset="100%" stop-color="#fbbf24"/>
    </linearGradient>
  </defs>
  <rect width="40" height="40" rx="11" fill="url(#g)"/>
  <path d="M11 12.5c0-1.2 1-2 2.2-1.7 5.2 1.1 8.8 1.1 14 0 1.2-.3 2.2.5 2.2 1.7v15c0 1-.7 1.7-1.6 1.9-5.4 1.2-9.8 1.2-15.2 0-1-.2-1.6-.9-1.6-1.9v-15z" fill="rgba(255,255,255,0.14)"/>
  <path d="M20 11.5v17M14.5 13.5c2.8-.6 5.5-.6 8.3 0M14.5 18.5c2.5-.5 5-.5 7.5 0M14.5 23.5c2.8-.6 5.5-.6 8.3 0" stroke="rgba(255,255,255,0.35)" stroke-width="1.2" stroke-linecap="round"/>
  <path d="M15.5 14.5c3.2 2.8 3.2 8.2 0 11M24.5 14.5c-3.2 2.8-3.2 8.2 0 11" stroke="white" stroke-width="2.4" stroke-linecap="round" fill="none"/>
  <circle cx="28.5" cy="11.5" r="3.2" fill="url(#a)"/>
  <path d="M28.5 9.8v3.4M27.1 11.5h2.8" stroke="white" stroke-width="1.1" stroke-linecap="round"/>
</svg>
