<svg xmlns="http://www.w3.org/2000/svg" viewBox="0 0 40 40" role="img" aria-label="SomEducation">
  <rect width="40" height="40" rx="8" fill="#0056D2"/>
  <path fill="#ffffff" d="M28.2 10.8c0-2.6-2.4-4.4-6.8-4.4-4.2 0-7.2 1.8-7.2 5.1 0 2.4 1.8 4.1 5.4 4.8l3.8.8c4.2.9 6.2 2.8 6.2 5.8 0 3.8-3.4 6.5-9 6.5-4.8 0-8.2-2.2-8.6-5.8h3.8c.3 2.2 2.6 3.6 5.4 3.6 3.4 0 5.6-1.6 5.6-4 0-2.2-1.6-3.4-4.8-4l-3.8-.8c-4.4-1-6.6-3-6.6-6.2 0-4 3.6-6.6 9.4-6.6 5.2 0 8.8 2.4 9.2 6.2h-3.8c-.4-2-2.2-3.2-5-3.2z"/>
</svg>
